<?xml version="1.0" encoding="utf-8"?>
<!-- Generator: Adobe Illustrator 27.5.0, SVG Export Plug-In . SVG Version: 6.00 Build 0)  -->
<svg version="1.1" id="Layer_1" xmlns="http://www.w3.org/2000/svg" xmlns:xlink="http://www.w3.org/1999/xlink" x="0px" y="0px"
	 viewBox="0 0 1179 123" style="enable-background:new 0 0 1179 123;" xml:space="preserve">
<style type="text/css">
	.st0{clip-path:url(#SVGID_00000036963423001726992870000017283816223151276465_);}
	.st1{fill:#D2D2D2;}
	.st2{fill-rule:evenodd;clip-rule:evenodd;fill:#D2D2D2;}
	.st3{fill:#D2D2D2;stroke:#FFFFFF;stroke-width:0.5109;stroke-miterlimit:10;}
	.st4{clip-path:url(#SVGID_00000031174053733073904180000011157944439325608323_);}
	.st5{stroke:#FFFFFF;stroke-width:2.4186;stroke-miterlimit:10;}
</style>
<g>
	<defs>
		<rect id="SVGID_1_" x="775.7" y="1" width="403.3" height="121"/>
	</defs>
	<clipPath id="SVGID_00000088132127038302774060000002200249154540572845_">
		<use xlink:href="#SVGID_1_"  style="overflow:visible;"/>
	</clipPath>
	<g style="clip-path:url(#SVGID_00000088132127038302774060000002200249154540572845_);">
		<path class="st1" d="M902.4,25.5c0.9,0,1.7,0.2,2.5,0.5c0.8,0.3,1.5,0.8,2.1,1.4c0.6,0.6,1.1,1.3,1.4,2.1c0.3,0.8,0.5,1.7,0.5,2.5
			c0,0.9-0.1,1.7-0.5,2.5c-0.3,0.8-0.8,1.5-1.4,2.1c-0.6,0.6-1.3,1.1-2,1.4c-0.8,0.3-1.6,0.5-2.4,0.5c-0.9,0-1.7-0.2-2.5-0.5
			c-0.8-0.3-1.5-0.8-2.1-1.5c-0.6-0.6-1.1-1.4-1.4-2.2c-0.3-0.8-0.5-1.7-0.5-2.6c0-0.9,0.1-1.7,0.5-2.5c0.3-0.8,0.8-1.5,1.4-2.1
			c0.6-0.6,1.3-1.1,2.1-1.4C900.7,25.7,901.6,25.5,902.4,25.5L902.4,25.5L902.4,25.5z M897.3,42.2h10.1v40.5h-10.1V42.2z
			 M926.6,42.2v4.5c1.7-1.7,3.7-3.1,5.9-4.1c2.1-0.9,4.5-1.4,6.8-1.4c2.5,0,5,0.5,7.3,1.5c2.3,1,4.4,2.6,6,4.5
			c3.7,4.2,5.7,9.7,5.5,15.4c0.2,5.6-1.9,11-5.7,15.1c-1.7,1.9-3.8,3.5-6.1,4.5c-2.3,1-4.8,1.6-7.4,1.6c-2.2,0-4.4-0.4-6.5-1.2
			c-2.2-1-4.2-2.4-5.9-4.1v19.1h-10V42.2L926.6,42.2L926.6,42.2z M937.2,50.5c-1.5,0-2.9,0.2-4.3,0.8c-1.4,0.6-2.6,1.4-3.6,2.5
			c-1.1,1.1-1.9,2.5-2.4,4c-0.5,1.5-0.8,3-0.7,4.6c-0.1,3.2,1,6.3,3.1,8.7c1,1.1,2.2,1.9,3.6,2.5c1.4,0.6,2.8,0.9,4.3,0.8
			c1.5,0,2.9-0.3,4.3-0.8c1.3-0.6,2.5-1.5,3.5-2.5c2.1-2.4,3.3-5.5,3.1-8.6c0.1-3.1-1-6.2-3.1-8.5c-1-1.1-2.2-1.9-3.5-2.5
			C940.1,50.8,938.6,50.5,937.2,50.5L937.2,50.5z M970.4,25.5c0.9,0,1.7,0.2,2.5,0.5c0.8,0.3,1.5,0.8,2.1,1.4
			c0.6,0.6,1.1,1.3,1.4,2.2c0.3,0.8,0.5,1.7,0.5,2.5c0,0.9-0.1,1.7-0.5,2.5c-0.3,0.8-0.8,1.5-1.4,2.1c-0.6,0.6-1.3,1.1-2,1.4
			c-0.8,0.3-1.6,0.5-2.4,0.5c-0.9,0-1.7-0.2-2.5-0.5c-0.8-0.3-1.5-0.8-2.1-1.5c-0.6-0.6-1.1-1.4-1.4-2.2c-0.3-0.8-0.5-1.7-0.5-2.6
			c0-0.9,0.1-1.7,0.5-2.5c0.3-0.8,0.8-1.5,1.4-2.1c0.6-0.6,1.3-1.1,2.1-1.4C968.8,25.7,969.6,25.5,970.4,25.5L970.4,25.5z
			 M965.4,42.2h10.1v40.5h-10.1V42.2z M984.6,42.2h10v4.1c1.9-1.7,4-3,6.2-4c1.8-0.8,3.7-1.1,5.7-1.1c1.9,0,3.8,0.3,5.5,1.1
			c1.7,0.7,3.3,1.8,4.6,3.2c1.3,1.4,2.2,3.1,2.8,4.9c0.6,1.8,0.8,3.7,0.7,5.6v26.7h-10V64.9c0.1-3.2-0.1-6.5-0.7-9.6
			c-0.3-1.4-1.1-2.7-2.3-3.6c-1.1-0.9-2.5-1.3-4-1.2c-1,0-1.9,0.2-2.8,0.5c-0.9,0.4-1.7,0.9-2.4,1.6c-1.6,1.6-2.6,3.5-3,5.7
			c-0.4,2.7-0.5,5.5-0.4,8.2v16.3h-10L984.6,42.2L984.6,42.2z M1025.2,42.2h3.6c0-5.3,0.1-8.4,0.3-9.4c0.1-1,0.4-2,0.9-2.9
			c0.5-0.9,1.1-1.7,1.9-2.4c2-1.4,4.3-2.1,6.7-2c2.4,0.1,4.8,0.6,7.1,1.5v7.7c-1.2-0.4-2.4-0.6-3.6-0.6c-0.9-0.1-1.8,0.2-2.6,0.7
			c-0.5,0.7-0.7,1.5-0.6,2.3l0,5.1h6.4v8.6h-6.4v31.9h-10.1V50.8h-3.6L1025.2,42.2L1025.2,42.2L1025.2,42.2z M1070,41.1
			c3.8,0,7.4,1,10.7,2.9c3.2,1.8,5.9,4.5,7.8,7.7c1.9,3.2,2.8,6.9,2.8,10.6c0,3.8-1,7.5-2.8,10.7c-1.8,3.3-4.5,5.9-7.7,7.8
			c-3.3,1.9-7,2.8-10.7,2.8c-2.8,0-5.5-0.5-8-1.6s-4.8-2.6-6.7-4.6c-2-2-3.5-4.3-4.6-6.9c-1-2.6-1.6-5.4-1.5-8.1
			c-0.1-3,0.5-5.9,1.7-8.7c1.2-2.7,3-5.2,5.2-7.1C1059.9,43.1,1064.8,41.1,1070,41.1L1070,41.1z M1070.2,50.7
			c-1.5,0-2.9,0.2-4.3,0.8c-1.3,0.6-2.6,1.4-3.6,2.5c-1,1.1-1.9,2.5-2.4,3.9c-0.5,1.4-0.8,3-0.7,4.5c-0.1,3.2,1,6.2,3.1,8.6
			c1,1.1,2.2,1.9,3.5,2.5c1.3,0.6,2.8,0.8,4.3,0.8c1.5,0,2.9-0.2,4.3-0.8c1.4-0.6,2.6-1.4,3.6-2.5c1.1-1.1,1.9-2.5,2.4-3.9
			c0.5-1.5,0.8-3,0.7-4.6c0.1-3.1-1-6.2-3.1-8.5c-1-1.1-2.2-1.9-3.6-2.5C1073.1,50.9,1071.6,50.7,1070.2,50.7z M1105.1,72.1
			c0.8,0,1.5,0.1,2.2,0.4c0.7,0.3,1.3,0.7,1.9,1.3c0.7,0.7,1.2,1.5,1.4,2.4c0.3,0.9,0.3,1.9,0.1,2.8c-0.2,0.9-0.6,1.8-1.2,2.5
			c-0.6,0.7-1.4,1.3-2.3,1.7c-1.3,0.6-2.8,0.6-4.2,0.1c-1.4-0.5-2.5-1.5-3.1-2.7c-0.4-0.8-0.6-1.6-0.7-2.5c0-0.9,0.1-1.7,0.4-2.5
			c0.6-1.4,1.7-2.6,3.1-3.1C1103.5,72.2,1104.3,72.1,1105.1,72.1L1105.1,72.1L1105.1,72.1z M1124.7,25.5c0.9,0,1.7,0.2,2.5,0.5
			c0.8,0.3,1.5,0.8,2.1,1.4c0.6,0.6,1.1,1.3,1.4,2.2c0.3,0.8,0.5,1.7,0.5,2.5c0,0.9-0.1,1.7-0.5,2.5c-0.3,0.8-0.8,1.5-1.4,2.1
			c-0.6,0.6-1.3,1.1-2,1.4c-0.8,0.3-1.6,0.5-2.4,0.5c-0.9,0-1.7-0.2-2.5-0.5c-0.8-0.3-1.5-0.8-2.1-1.5c-0.6-0.6-1.1-1.4-1.4-2.2
			c-0.3-0.8-0.5-1.7-0.5-2.6c0-1.7,0.7-3.4,1.9-4.6c0.6-0.6,1.3-1.1,2.1-1.4C1123,25.7,1123.8,25.5,1124.7,25.5L1124.7,25.5z
			 M1119.6,42.2h10.1v40.5h-10.1V42.2z M1157.7,41.1c3.8,0,7.4,1,10.7,2.9c3.2,1.8,5.9,4.5,7.8,7.7c1.9,3.2,2.8,6.9,2.8,10.6
			c0,3.8-1,7.5-2.8,10.7c-1.8,3.3-4.5,5.9-7.7,7.8c-3.3,1.9-7,2.8-10.7,2.8c-2.7,0-5.5-0.5-8-1.6c-2.5-1.1-4.8-2.6-6.7-4.6
			c-2-2-3.5-4.3-4.6-6.9c-1.1-2.6-1.6-5.4-1.5-8.1c-0.1-3,0.5-5.9,1.7-8.7c1.2-2.7,3-5.2,5.2-7.1
			C1147.5,43.1,1152.5,41.1,1157.7,41.1L1157.7,41.1z M1157.8,50.7c-1.5,0-2.9,0.2-4.3,0.8c-1.3,0.6-2.6,1.4-3.6,2.5
			c-1,1.1-1.9,2.5-2.4,3.9c-0.5,1.4-0.8,3-0.7,4.5c-0.1,3.2,1,6.2,3.1,8.6c1,1.1,2.2,1.9,3.5,2.5c1.3,0.6,2.8,0.8,4.3,0.8
			c1.5,0,2.9-0.2,4.3-0.8c1.4-0.6,2.6-1.4,3.6-2.5c1.1-1.1,1.9-2.5,2.4-3.9c0.5-1.5,0.8-3,0.7-4.6c0.1-3.1-1-6.2-3.1-8.5
			c-1-1.1-2.2-1.9-3.6-2.5C1160.8,50.9,1159.3,50.7,1157.8,50.7L1157.8,50.7z"/>
		<path class="st2" d="M828.9,92.2l7.9,9.2l9.1-7.9l8.9-7.8c9.6-8.4,15.5-20.3,16.4-33c0.9-12.7-3.2-25.3-11.5-35
			c-4.1-4.8-9.1-8.7-14.7-11.5c-5.6-2.8-11.7-4.5-18-5c-6.3-0.5-12.6,0.3-18.5,2.3c-6,2-11.5,5.1-16.2,9.3
			c-9.6,8.4-15.5,20.3-16.4,33c-0.9,12.7,3.2,25.3,11.5,35l31.4,36.6c2.8,3.3,5.8,6.8,10.3,3l0.1-0.1l0.1-0.1
			c4.4-4,1.3-7.5-1.5-10.7l-2-2.3l-29.5-34.3c-6.2-7.3-9.3-16.7-8.6-26.2c0.7-9.5,5.1-18.4,12.2-24.7c3.6-3.1,7.7-5.4,12.2-6.9
			c4.5-1.5,9.2-2.1,13.9-1.7c9.5,0.7,18.3,5.1,24.5,12.3c6.2,7.3,9.3,16.7,8.6,26.2c-0.7,9.5-5.1,18.4-12.2,24.7l-8.9,7.8l-7.9-9.2
			l-7.9-9.2l-7.7-9c-2-2.4-3-5.5-2.8-8.6c0.2-3.1,1.7-6,4-8.1c2.4-2,5.4-3,8.6-2.8c3.1,0.2,6,1.7,8.1,4c1.8,2.1,2.7,4.7,2.8,7.4
			c0.1,2.7-0.8,5.4-2.4,7.6c-0.8,1.1-1.2,2.5-1.1,3.9c0.1,1.4,0.6,2.7,1.5,3.8c4,4.6,8.3,1.4,10.6-2.5c2.6-4.3,3.8-9.4,3.3-14.4
			c-0.4-5-2.4-9.8-5.7-13.7c-4.1-4.8-10-7.7-16.3-8.2c-6.3-0.5-12.5,1.6-17.3,5.7c-4.7,4.2-7.7,10.1-8.1,16.4
			c-0.5,6.3,1.6,12.6,5.7,17.4l7.7,9l7.9,9.2L828.9,92.2L828.9,92.2z"/>
	</g>
</g>
<path class="st3" d="M60.6,119.1c-31.8,0-57.7-25.9-57.7-57.7c0-3.9,0.4-7.7,1.1-11.5l-2.8-0.6c-0.8,4-1.2,8-1.2,12.1
	c0,8,1.6,15.8,4.6,23.2c3,7.3,7.5,14,13.1,19.6c5.6,5.6,12.3,10.1,19.7,13.1c7.3,3,15.2,4.6,23.2,4.6c2.2,0,4.4-0.1,6.6-0.4
	l-0.3-2.8C64.7,119,62.7,119.1,60.6,119.1z"/>
<path class="st3" d="M60.6,3.9c7.1,0,14.2,1.3,20.9,3.9l1-2.7C71.6,0.9,59.8-0.1,48.4,2.2C37,4.6,26.5,10.2,18.2,18.3l2,2.1
	C31,9.8,45.5,3.8,60.6,3.9z"/>
<path class="st3" d="M60.6,13.5c8.6,0,17.1,2.3,24.5,6.7l1.5-2.5c-7.8-4.7-16.8-7.1-25.9-7.1C34.1,10.6,12.3,31,10,56.9l2.8,0.3
	C15,32.7,35.6,13.5,60.6,13.5z"/>
<path class="st3" d="M60.6,109.5c-23.9,0-43.7-17.5-47.4-40.3l-2.8,0.5c3.9,24.2,24.9,42.7,50.2,42.7c7.6,0,15.2-1.7,22.1-5
	l-1.2-2.6C74.9,107.9,67.8,109.5,60.6,109.5z"/>
<path class="st3" d="M98.7,63.1c-0.9,20.3-17.7,36.6-38.2,36.6c-5.2,0-10.4-1.1-15.2-3.1l-1.1,2.6c5.2,2.2,10.7,3.4,16.3,3.4
	c22.1,0,40.2-17.6,41-39.4H98.7z"/>
<path class="st3" d="M60.6,23.3v-2.9c-22.6,0-41.1,18.4-41.1,41.1c0,5.9,1.3,11.7,3.7,17l2.6-1.2c-2.3-5-3.5-10.4-3.4-15.9
	C22.3,40.4,39.5,23.3,60.6,23.3z"/>
<path class="st3" d="M60.6,33.1c4.4,0,8.7,1,12.6,2.9c3.9,1.9,7.3,4.7,10,8.2h3.5c-2.9-4.3-6.7-7.8-11.3-10.3
	c-4.5-2.4-9.6-3.7-14.8-3.7c-17.3,0-31.3,14.1-31.3,31.3c0,17.3,14,31.3,31.3,31.3c16.7,0,30.4-13.2,31.3-29.7H70.5V66h18.1
	c-2.2,13.6-14,24-28.1,24c-7.6,0-14.8-3-20.1-8.3c-5.3-5.3-8.3-12.6-8.3-20.1c0-7.6,3-14.8,8.3-20.1C45.8,36.1,53,33.1,60.6,33.1z"
	/>
<g>
	<defs>
		<rect id="SVGID_00000068665864759954658270000003404025848934025891_" x="140.4" y="27.2" width="505.6" height="65.5"/>
	</defs>
	<clipPath id="SVGID_00000160192957156754230120000006652688397634360711_">
		<use xlink:href="#SVGID_00000068665864759954658270000003404025848934025891_"  style="overflow:visible;"/>
	</clipPath>
	<g style="clip-path:url(#SVGID_00000160192957156754230120000006652688397634360711_);">
		<path class="st5" d="M467.9,78c-4,0-7.9-1.2-11.3-3.4c-3.3-2.2-5.9-5.4-7.5-9.1c-1.5-3.7-1.9-7.8-1.2-11.7
			c0.8-3.9,2.7-7.6,5.6-10.4c2.8-2.8,6.5-4.8,10.4-5.6c3.9-0.8,8-0.4,11.7,1.2c3.7,1.5,6.9,4.1,9.1,7.5c2.2,3.3,3.4,7.3,3.4,11.3
			c0,5.4-2.1,10.5-5.9,14.4C478.5,75.9,473.3,78,467.9,78z M467.9,40.9c-3.3,0-6.6,1-9.4,2.8c-2.8,1.9-4.9,4.5-6.2,7.6
			c-1.3,3.1-1.6,6.5-1,9.7c0.7,3.3,2.3,6.3,4.6,8.6c2.4,2.4,5.4,4,8.6,4.6c3.3,0.7,6.7,0.3,9.7-1c3.1-1.3,5.7-3.4,7.6-6.2
			c1.9-2.8,2.9-6,2.9-9.4c0-4.5-1.8-8.8-5-11.9C476.7,42.7,472.4,40.9,467.9,40.9z"/>
		<path class="st5" d="M210.7,77.4h3.5V61.6h11.6L238,77.5h4.4l-12.3-15.9c3-0.2,5.9-1.5,7.9-3.8c2-2.2,3.1-5.2,3-8.2
			c-0.1-3-1.4-5.9-3.6-8c-2.2-2.1-5.1-3.2-8.2-3.2h-18.5V77.4z M214.1,41.8h15c1.1,0,2.2,0.2,3.2,0.6c1,0.4,1.9,1,2.7,1.8
			c0.8,0.8,1.4,1.7,1.8,2.7c0.4,1,0.6,2.1,0.6,3.2c0,1.1-0.2,2.2-0.6,3.2c-0.4,1-1,1.9-1.8,2.7s-1.7,1.4-2.7,1.8
			c-1,0.4-2.1,0.6-3.2,0.6h-15L214.1,41.8z"/>
		<path class="st5" d="M343.8,58.1l-14.1-19.7h-4.2L342,61.6v15.8h3.5V61.6l16.6-23.2h-4.2L343.8,58.1z"/>
		<path class="st5" d="M418.9,71.8l-26.3-33.4h-3.1v39.1h3.5V44.4l26,33.1h3.4V38.4h-3.4V71.8z"/>
		<path class="st5" d="M275.3,59.8H297v-3.5h-25.2v21.1h29V74h-25.5V59.8z"/>
		<path class="st5" d="M300.8,38.4h-29v3.5h29V38.4z"/>
		<path class="st5" d="M517,38.4h-3.4v39.1h3.4V38.4z"/>
		<path class="st5" d="M164.8,56.3v3.5h12.6v10.6c-2.4,2.2-5.4,3.7-8.7,4.2c-3.2,0.5-6.6,0.1-9.6-1.2s-5.5-3.5-7.3-6.3
			c-1.8-2.8-2.7-6-2.7-9.3c0-3.3,1-6.5,2.8-9.2c1.8-2.7,4.4-4.9,7.4-6.2c3-1.3,6.4-1.7,9.6-1.1c3.2,0.6,6.2,2.1,8.6,4.3l2.3-2.6
			c-2.8-2.6-6.3-4.4-10-5.1c-3.8-0.7-7.6-0.4-11.2,1c-3.6,1.4-6.7,3.7-9,6.8c-2.3,3.1-3.7,6.7-4,10.5c-0.3,3.8,0.5,7.6,2.2,11
			c1.8,3.4,4.5,6.2,7.8,8.1c3.3,1.9,7.1,2.9,10.9,2.8c3.8-0.1,7.5-1.3,10.7-3.5c1.3-0.9,2.4-1.8,3.5-3V56.3H164.8z"/>
		<path class="st5" d="M562.8,56.1c-8.6-1.8-9.8-5.2-9.8-8.5c0-4.1,5.6-6.6,9.6-6.6c5.4,0,9.2,3.2,10.6,4.6l2.2-2.7
			c-2-1.9-6.3-5.4-12.8-5.4c-5.5,0-13,3.5-13,10c0,6.3,4,10.1,12.6,11.9c9.1,1.9,10.8,4.2,10.8,7.5c0,4.9-5.3,7.5-10.5,7.5
			c-5.4,0-10.4-3.7-12.4-5.3l-2.5,2.4c2.1,1.8,8,6.4,14.8,6.4c6.9,0,14-3.8,14-11C576.4,60.3,570.9,57.8,562.8,56.1z"/>
		<path class="st5" d="M608.9,59.8h21.7v-3.5h-25.2v21.1h29V74h-25.5V59.8z"/>
		<path class="st5" d="M634.5,38.4h-29v3.5h29V38.4z"/>
	</g>
</g>
</svg>
