<svg width="1179" height="123" viewBox="0 0 1179 123" fill="none" xmlns="http://www.w3.org/2000/svg">
<g clip-path="url(#clip0_157_8)">
<path d="M126.733 25.5248C127.585 25.5165 128.43 25.6842 129.214 26.0173C129.998 26.3504 130.705 26.8418 131.291 27.4607C131.905 28.0737 132.39 28.8042 132.716 29.6088C133.042 30.4134 133.202 31.2755 133.186 32.1433C133.204 33.0035 133.046 33.8583 132.723 34.6556C132.4 35.453 131.918 36.1763 131.307 36.7816C130.73 37.3936 130.032 37.8798 129.258 38.2094C128.484 38.5392 127.651 38.7052 126.81 38.6974C125.948 38.7115 125.094 38.5438 124.301 38.2053C123.509 37.8669 122.797 37.3653 122.212 36.7332C121.591 36.1134 121.102 35.3743 120.775 34.5605C120.448 33.7467 120.289 32.8751 120.308 31.9981C120.296 31.1469 120.456 30.302 120.778 29.5139C121.1 28.726 121.578 28.0111 122.184 27.4123C122.774 26.8039 123.482 26.3223 124.265 25.997C125.048 25.6717 125.889 25.5097 126.737 25.5207L126.733 25.5288V25.5248ZM121.667 42.1902H131.791V82.672H121.667V42.1902ZM150.908 42.1902V46.6671C152.598 44.9328 154.603 43.5333 156.817 42.5491C158.962 41.6255 161.274 41.1546 163.609 41.1657C166.139 41.1365 168.645 41.6574 170.953 42.6919C173.262 43.7269 175.318 45.251 176.979 47.1592C180.727 51.3796 182.695 56.8862 182.473 62.5259C182.639 68.1192 180.596 73.5528 176.786 77.6506C175.102 79.5668 173.028 81.1014 170.704 82.1517C168.381 83.2003 165.864 83.7408 163.319 83.7327C161.101 83.7489 158.906 83.3294 156.853 82.4865C154.639 81.5023 152.623 80.1218 150.904 78.4129V97.4902H140.898V42.1861H150.904L150.908 42.1902ZM161.504 50.531C160.029 50.4882 158.562 50.7584 157.2 51.3239C155.838 51.889 154.61 52.7363 153.599 53.81C152.536 54.955 151.712 56.3001 151.174 57.7666C150.636 59.2331 150.395 60.792 150.465 62.3524C150.321 65.5601 151.449 68.6951 153.603 71.0764C154.609 72.1609 155.834 73.0188 157.197 73.5939C158.56 74.1691 160.029 74.4478 161.508 74.4119C162.971 74.4385 164.422 74.1497 165.763 73.5653C167.104 72.9805 168.304 72.1137 169.28 71.0239C171.419 68.6701 172.548 65.571 172.426 62.3928C172.547 59.2468 171.434 56.1816 169.328 53.8544C168.339 52.7714 167.128 51.9132 165.778 51.3376C164.428 50.7621 162.971 50.483 161.504 50.5189V50.531ZM194.766 25.5248C195.62 25.5154 196.465 25.6825 197.251 26.0156C198.037 26.3488 198.745 26.8408 199.332 27.4607C199.947 28.0741 200.432 28.8054 200.758 29.6107C201.083 30.416 201.243 31.2788 201.227 32.1474C201.245 33.0075 201.087 33.8623 200.764 34.6596C200.441 35.457 199.959 36.1803 199.348 36.7856C198.771 37.3975 198.073 37.8835 197.299 38.2131C196.525 38.5428 195.692 38.709 194.851 38.7014C193.989 38.7155 193.135 38.5478 192.343 38.2094C191.55 37.8709 190.838 37.3693 190.253 36.7372C189.632 36.1176 189.143 35.3785 188.816 34.5647C188.489 33.7509 188.33 32.8791 188.349 32.0022C188.337 31.1509 188.496 30.3059 188.819 29.5178C189.141 28.7298 189.619 28.015 190.225 27.4164C190.815 26.8079 191.523 26.3263 192.306 26.001C193.089 25.6758 193.93 25.5137 194.778 25.5248H194.766ZM189.704 42.1902H199.828V82.672H189.704V42.1902ZM208.935 42.1902H218.978V46.3283C220.831 44.6658 222.934 43.3038 225.209 42.291C227.014 41.5384 228.949 41.1492 230.904 41.1456C232.797 41.1116 234.676 41.469 236.423 42.1958C238.171 42.9226 239.749 44.0027 241.06 45.3684C242.317 46.8091 243.274 48.4849 243.876 50.2994C244.479 52.1136 244.714 54.0294 244.569 55.9355V82.676H234.599V64.9378C234.72 61.7111 234.502 58.4845 233.937 55.3063C233.606 53.8802 232.811 52.6036 231.678 51.6764C230.54 50.8254 229.146 50.3862 227.726 50.4301C226.755 50.4108 225.79 50.5838 224.886 50.9387C223.981 51.2941 223.157 51.824 222.458 52.4992C220.898 54.052 219.837 56.0364 219.409 58.2022C219.022 60.9267 218.873 63.6798 218.966 66.4301V82.6841H208.923V42.1902H208.935ZM249.51 42.1902H253.099C253.127 36.8905 253.204 33.7526 253.357 32.7725C253.449 31.7493 253.742 30.7543 254.22 29.8448C254.697 28.9353 255.35 28.1292 256.14 27.4728C258.091 26.0534 260.476 25.3601 262.884 25.5127C265.308 25.5812 267.704 26.0773 269.962 26.9767V34.7206C268.804 34.3421 267.598 34.129 266.381 34.0874C265.459 34.0077 264.541 34.2689 263.799 34.8214C263.32 35.4922 263.112 36.3188 263.215 37.1365L263.174 42.1902H269.567V50.8214H263.17V82.672H253.099V50.8254H249.518V42.1942L249.514 42.1902H249.51ZM294.339 41.1456C298.096 41.1412 301.786 42.1321 305.035 44.0172C308.27 45.8588 310.955 48.5288 312.816 51.753C314.679 54.9837 315.659 58.658 315.647 62.3928C315.661 66.1506 314.687 69.8458 312.824 73.1091C311.01 76.3595 308.347 79.0558 305.12 80.9095C301.851 82.7821 298.143 83.7497 294.375 83.7126C291.623 83.7557 288.891 83.2278 286.353 82.1614C283.815 81.095 281.526 79.5135 279.63 77.5175C277.65 75.5517 276.087 73.2051 275.037 70.6198C273.987 68.0345 273.471 65.2636 273.52 62.4734C273.455 59.4888 274.044 56.5284 275.238 53.7939C276.427 51.067 278.198 48.6321 280.424 46.659C284.179 43.0981 289.164 41.1242 294.339 41.1496V41.1456ZM294.496 50.7125C293.034 50.6754 291.58 50.9504 290.232 51.5191C288.885 52.0882 287.673 52.938 286.68 54.0117C285.633 55.1418 284.818 56.4671 284.284 57.9122C283.75 59.3573 283.506 60.8936 283.566 62.4331C283.423 65.5835 284.531 68.6625 286.648 70.9997C287.641 72.0677 288.85 72.9123 290.195 73.477C291.54 74.0416 292.99 74.3135 294.448 74.2747C295.919 74.3139 297.381 74.0384 298.737 73.4673C300.094 72.8966 301.313 72.0427 302.313 70.9634C303.37 69.8192 304.192 68.4773 304.73 67.0149C305.268 65.5524 305.511 63.998 305.447 62.4412C305.577 59.3271 304.472 56.2876 302.373 53.9834C301.364 52.9146 300.141 52.0713 298.784 51.5074C297.427 50.944 295.966 50.6729 294.496 50.7125ZM329.384 72.0686C330.144 72.056 330.899 72.1996 331.602 72.4904C332.305 72.7812 332.94 73.2128 333.47 73.7585C334.142 74.4397 334.637 75.2754 334.91 76.1926C335.184 77.1097 335.228 78.0797 335.039 79.0179C334.851 79.9536 334.437 80.8288 333.833 81.5677C333.229 82.3066 332.454 82.8866 331.574 83.2568C330.247 83.8118 328.761 83.8493 327.408 83.3617C326.055 82.8741 324.934 81.8968 324.266 80.6231C323.863 79.8624 323.633 79.0231 323.591 78.1636C323.55 77.3041 323.697 76.4463 324.024 75.6501C324.612 74.2284 325.741 73.0987 327.162 72.5082C327.864 72.2178 328.614 72.0726 329.376 72.0766L329.38 72.0686H329.384ZM348.986 25.5248C349.839 25.5154 350.685 25.6825 351.471 26.0156C352.256 26.3488 352.965 26.8408 353.551 27.4607C354.166 28.0745 354.65 28.8059 354.975 29.6112C355.3 30.4165 355.459 31.2791 355.443 32.1474C355.46 33.0075 355.303 33.8622 354.98 34.6595C354.657 35.4569 354.175 36.1802 353.564 36.7856C352.986 37.3973 352.289 37.8831 351.515 38.2128C350.741 38.5425 349.907 38.7088 349.066 38.7014C348.205 38.7155 347.35 38.5478 346.558 38.2094C345.766 37.8709 345.054 37.3693 344.469 36.7372C343.848 36.1175 343.359 35.3784 343.032 34.5646C342.705 33.7508 342.546 32.8791 342.565 32.0022C342.561 30.2874 343.235 28.6406 344.44 27.4204C345.036 26.8196 345.745 26.3428 346.525 26.0175C347.306 25.6921 348.144 25.5246 348.99 25.5248H348.986ZM343.924 42.1902H354.047V82.672H343.924V42.1902ZM382.022 41.1456C385.779 41.1412 389.469 42.1321 392.718 44.0172C395.953 45.8584 398.639 48.5288 400.499 51.753C402.362 54.9885 403.338 58.6588 403.33 62.3928C403.342 66.1506 402.37 69.8458 400.507 73.1091C398.693 76.3595 396.03 79.0558 392.803 80.9095C389.533 82.7825 385.823 83.7501 382.054 83.7126C379.307 83.7533 376.581 83.2245 374.048 82.1598C371.511 81.0914 369.22 79.5111 367.321 77.5175C365.341 75.5513 363.779 73.2051 362.729 70.6198C361.679 68.0345 361.163 65.2636 361.211 62.4734C361.144 59.4916 361.728 56.5312 362.921 53.7979C364.108 51.0702 365.875 48.6341 368.099 46.659C371.854 43.0965 376.839 41.1212 382.014 41.1456H382.022ZM382.171 50.7125C380.709 50.6754 379.257 50.9504 377.909 51.5195C376.562 52.0882 375.352 52.938 374.359 54.0117C373.311 55.1414 372.496 56.4671 371.962 57.9118C371.427 59.3569 371.182 60.8932 371.241 62.4331C371.101 65.5843 372.211 68.6637 374.331 70.9997C375.324 72.0677 376.533 72.9123 377.878 73.477C379.223 74.0416 380.673 74.3135 382.131 74.2747C383.601 74.3135 385.063 74.038 386.418 73.4669C387.774 72.8958 388.992 72.0423 389.992 70.9634C391.05 69.8196 391.872 68.4777 392.411 67.0153C392.949 65.5528 393.194 63.9984 393.13 62.4412C393.259 59.3271 392.155 56.288 390.056 53.9834C389.045 52.9146 387.82 52.0717 386.46 51.5094C385.101 50.9468 383.638 50.6782 382.167 50.7205L382.171 50.7125Z" fill="#D2D2D2"/>
<path fill-rule="evenodd" clip-rule="evenodd" d="M53.2636 92.1898L61.1365 101.357L70.2315 93.4281L79.141 85.66C88.722 77.2365 94.5992 65.3776 95.4999 52.6518C96.4178 39.9167 92.289 27.3315 84.0051 17.6151C79.8964 12.8502 74.8887 8.94176 69.2688 6.11332C63.6484 3.28489 57.5259 1.59192 51.251 1.13119C44.9793 0.678223 38.6795 1.46793 32.7134 3.455C26.7473 5.44206 21.2322 8.58744 16.4844 12.7107C6.9028 21.1356 1.02556 32.9959 0.125527 45.7227C-0.790918 58.4569 3.33788 71.0403 11.6203 80.7556L43.0353 117.337C45.8424 120.604 48.7947 124.145 53.3564 120.37L53.4935 120.253L53.6226 120.136C57.9865 116.123 54.9334 112.671 52.1262 109.4L50.1661 107.121L20.7153 72.81C14.5228 65.5324 11.4376 56.1132 12.1245 46.5818C12.8006 37.0567 17.1977 28.1799 24.3654 21.8702C27.9216 18.7873 32.0508 16.436 36.5168 14.9508C40.9827 13.4656 45.6976 12.8757 50.3919 13.2148C59.8777 13.9128 68.6985 18.3491 74.9141 25.5485C81.1068 32.8263 84.1918 42.2456 83.505 51.7766C82.8298 61.3016 78.4343 70.1783 71.2681 76.4884L62.3626 84.2564L54.4897 75.0888L46.6168 65.9212L38.9133 56.9472C36.9005 54.5483 35.9 51.4596 36.1236 48.3358C36.3471 45.2121 37.7772 42.2976 40.1112 40.2094C42.4819 38.1843 45.5556 37.1753 48.6653 37.401C51.7753 37.6268 54.6708 39.0691 56.7241 41.4152C58.479 43.5064 59.474 46.1301 59.5474 48.859C59.6208 51.5879 58.7678 54.2611 57.1275 56.4431C56.345 57.5817 55.9586 58.9465 56.0288 60.3263C56.0986 61.7061 56.6209 63.0246 57.5146 64.078C61.4672 68.68 65.8272 65.5139 68.1504 61.6178C70.7377 57.2691 71.9033 52.2211 71.4846 47.1783C71.066 42.1351 69.084 37.3487 65.8151 33.486C61.6842 28.7105 55.8263 25.7704 49.5288 25.3121C43.2309 24.8539 37.0091 26.9147 32.2302 31.0418C27.4804 35.2444 24.5665 41.1408 24.1134 47.4667C23.6602 53.7924 25.7039 60.0444 29.8063 64.8807L37.5138 73.8587L45.3907 83.0142L53.2636 92.1818V92.1898Z" fill="#D2D2D2"/>
</g>
<path d="M593.538 119.149C561.717 119.149 535.831 93.2607 535.831 61.4422C535.826 57.579 536.209 53.7252 536.973 49.9383L534.168 49.3672C533.368 53.3424 532.966 57.3874 532.968 61.4422C532.968 69.3957 534.535 77.2714 537.579 84.6193C540.623 91.9673 545.085 98.6436 550.709 104.267C556.334 109.891 563.011 114.351 570.36 117.394C577.708 120.436 585.584 122.002 593.538 122C595.731 121.999 597.924 121.881 600.105 121.646L599.794 118.809C597.716 119.035 595.628 119.149 593.538 119.149Z" fill="#D2D2D2" stroke="white" stroke-width="0.510926" stroke-miterlimit="10"/>
<path d="M593.536 3.85015C600.68 3.84402 607.762 5.17109 614.42 7.76322L615.461 5.07456C604.599 0.879983 592.759 -0.101215 581.354 2.24802C569.95 4.59725 559.462 10.1777 551.141 18.3237L553.156 20.3796C563.922 9.77928 578.427 3.8416 593.536 3.85015Z" fill="#D2D2D2" stroke="white" stroke-width="0.510926" stroke-miterlimit="10"/>
<path d="M593.54 13.4883C602.155 13.4805 610.612 15.8077 618.01 20.2226L619.467 17.7715C611.628 13.0947 602.668 10.6294 593.54 10.6375C567.042 10.6375 545.231 31.0138 542.928 56.9182L545.768 57.1717C547.929 32.7225 568.524 13.4883 593.54 13.4883Z" fill="#D2D2D2" stroke="white" stroke-width="0.510926" stroke-miterlimit="10"/>
<path d="M593.531 109.522C569.667 109.522 549.827 92.0289 546.163 69.1855L543.347 69.6424C547.23 93.8381 568.246 112.382 593.52 112.382C601.161 112.39 608.704 110.663 615.582 107.334L614.344 104.764C607.855 107.903 600.739 109.53 593.531 109.522Z" fill="#D2D2D2" stroke="white" stroke-width="0.510926" stroke-miterlimit="10"/>
<path d="M631.712 63.1458C630.856 83.4764 614.057 99.7409 593.525 99.7409C588.307 99.7462 583.144 98.677 578.357 96.5999L577.215 99.2177C582.366 101.453 587.922 102.602 593.536 102.594C615.64 102.594 633.718 85.0434 634.577 63.1458H631.712Z" fill="#D2D2D2" stroke="white" stroke-width="0.510926" stroke-miterlimit="10"/>
<path d="M593.54 23.3025V20.4517C570.891 20.4517 552.465 38.8771 552.465 61.5264C552.459 67.4073 553.723 73.2202 556.171 78.5675L558.754 77.3774C556.476 72.4016 555.299 66.9922 555.305 61.5195C555.305 40.4488 572.453 23.3025 593.54 23.3025Z" fill="#D2D2D2" stroke="white" stroke-width="0.510926" stroke-miterlimit="10"/>
<path d="M593.532 33.0806C597.893 33.0808 602.196 34.0837 606.109 36.0118C610.021 37.94 613.437 40.7418 616.094 44.2008H619.603C616.744 39.9054 612.868 36.3826 608.32 33.9454C603.771 31.5081 598.692 30.2318 593.532 30.2297C576.255 30.2297 562.2 44.2853 562.2 61.5617C562.2 78.8382 576.244 92.8937 593.532 92.8937C610.262 92.8937 623.973 79.7108 624.827 63.1973H603.503V66.0482H621.647C619.493 79.624 607.695 90.0429 593.532 90.0429C585.978 90.0429 578.734 87.0422 573.392 81.7009C568.051 76.3597 565.051 69.1154 565.051 61.5617C565.051 54.0081 568.051 46.7638 573.392 41.4225C578.734 36.0813 585.978 33.0806 593.532 33.0806Z" fill="#D2D2D2" stroke="white" stroke-width="0.510926" stroke-miterlimit="10"/>
<g clip-path="url(#clip1_157_8)">
<path d="M1000.91 78.0453C996.898 78.0453 992.971 76.8542 989.632 74.6226C986.292 72.391 983.689 69.2191 982.151 65.5081C980.614 61.797 980.212 57.7135 980.996 53.7739C981.779 49.8343 983.714 46.2155 986.554 43.3752C989.394 40.5349 993.013 38.6006 996.953 37.817C1000.89 37.0334 1004.98 37.4356 1008.69 38.9727C1012.4 40.5099 1015.57 43.113 1017.8 46.4528C1020.03 49.7927 1021.22 53.7193 1021.22 57.736C1021.22 63.1204 1019.08 68.2825 1015.27 72.0898C1011.46 75.8972 1006.3 78.0389 1000.91 78.0453ZM1000.91 40.875C997.58 40.875 994.32 41.8639 991.547 43.7166C988.774 45.5693 986.613 48.2027 985.337 51.2836C984.061 54.3646 983.727 57.7548 984.378 61.0255C985.028 64.2962 986.634 67.3006 988.992 69.6586C991.35 72.0167 994.355 73.6225 997.625 74.2731C1000.9 74.9237 1004.29 74.5898 1007.37 73.3136C1010.45 72.0375 1013.08 69.8763 1014.93 67.1036C1016.79 64.3308 1017.78 61.0709 1017.78 57.736C1017.77 53.2656 1015.99 48.9796 1012.83 45.8185C1009.67 42.6575 1005.39 40.8796 1000.91 40.875Z" fill="black" stroke="white" stroke-width="2.4186" stroke-miterlimit="10"/>
<path d="M743.657 77.4363H747.112V61.5772H758.691L770.953 77.4708H775.317L763.02 61.5288C766.05 61.3573 768.893 60.0031 770.935 57.7577C772.977 55.5122 774.057 52.5549 773.942 49.5217C773.826 46.4885 772.525 43.6217 770.318 41.538C768.11 39.4543 765.174 38.3201 762.139 38.3794H743.657V77.4363ZM747.112 41.8484H762.135C763.218 41.8261 764.294 42.02 765.3 42.4188C766.307 42.8176 767.224 43.4133 767.997 44.1709C768.77 44.9285 769.385 45.8329 769.804 46.831C770.224 47.8291 770.44 48.9008 770.44 49.9835C770.44 51.0661 770.224 52.1379 769.804 53.136C769.385 54.1341 768.77 55.0385 767.997 55.7961C767.224 56.5537 766.307 57.1494 765.3 57.5482C764.294 57.947 763.218 58.1409 762.135 58.1186H747.109L747.112 41.8484Z" fill="black" stroke="white" stroke-width="2.4186" stroke-miterlimit="10"/>
<path d="M876.74 58.0646L862.647 38.3772H858.404L875.013 61.5819V77.396H878.464V61.5819L895.077 38.3772H890.834L876.74 58.0646Z" fill="black" stroke="white" stroke-width="2.4186" stroke-miterlimit="10"/>
<path d="M951.83 71.8125L925.571 38.3772H922.464V77.4928H925.916V44.403L951.902 77.4928H955.278V38.3772H951.83V71.8125Z" fill="black" stroke="white" stroke-width="2.4186" stroke-miterlimit="10"/>
<path d="M808.225 59.7888H829.93V56.3372H804.773V77.4722H833.765V74.0205H808.225V59.7888Z" fill="black" stroke="white" stroke-width="2.4186" stroke-miterlimit="10"/>
<path d="M833.762 38.3772H804.773V41.8289H833.762V38.3772Z" fill="black" stroke="white" stroke-width="2.4186" stroke-miterlimit="10"/>
<path d="M1050 38.3772H1046.55V77.4928H1050V38.3772Z" fill="black" stroke="white" stroke-width="2.4186" stroke-miterlimit="10"/>
<path d="M697.795 56.3445V59.7997H710.393V70.4276C707.97 72.6449 704.953 74.1067 701.712 74.6336C698.47 75.1605 695.146 74.7296 692.146 73.3938C689.146 72.058 686.601 69.8754 684.824 67.1139C683.047 64.3524 682.115 61.1322 682.142 57.8484C682.169 54.5646 683.154 51.3601 684.977 48.6283C686.799 45.8965 689.38 43.7563 692.401 42.4702C695.423 41.1841 698.754 40.8082 701.986 41.3885C705.218 41.9689 708.211 43.4803 710.596 45.7372L712.904 43.1735C710.115 40.5587 706.644 38.7846 702.891 38.0552C699.137 37.3259 695.255 37.671 691.689 39.0509C688.123 40.4308 685.019 42.7893 682.735 45.8552C680.45 48.921 679.078 52.5695 678.775 56.381C678.473 60.1924 679.252 64.0118 681.024 67.3997C682.796 70.7877 685.489 73.6065 688.792 75.5317C692.096 77.457 695.875 78.4106 699.697 78.2827C703.518 78.1548 707.225 76.9506 710.393 74.8088C711.65 73.9559 712.809 72.9663 713.848 71.8581V56.3445H697.795Z" fill="black" stroke="white" stroke-width="2.4186" stroke-miterlimit="10"/>
<path d="M1095.72 56.1308C1087.09 54.341 1085.91 50.9792 1085.91 47.6104C1085.91 43.5299 1091.49 41.0249 1095.5 41.0249C1100.93 41.0249 1104.66 44.1898 1106.07 45.6168L1108.27 42.9356C1106.31 41.0146 1101.92 37.5732 1095.49 37.5732C1090.02 37.5732 1082.45 41.0629 1082.45 47.6104C1082.45 53.9506 1086.44 57.7305 1095.01 59.5099C1104.08 61.3895 1105.85 63.6802 1105.85 67.0006C1105.85 71.9449 1100.57 74.5328 1095.36 74.5328C1089.93 74.5328 1084.91 70.8186 1082.96 69.1877L1080.49 71.6063C1082.56 73.4134 1088.52 77.9707 1095.34 77.9707C1102.25 77.9707 1109.29 74.2011 1109.29 66.9903C1109.32 60.3184 1103.88 57.8238 1095.72 56.1308Z" fill="black" stroke="white" stroke-width="2.4186" stroke-miterlimit="10"/>
<path d="M1141.89 59.7888H1163.59V56.3372H1138.44V77.4722H1167.43V74.0205H1141.89V59.7888Z" fill="black" stroke="white" stroke-width="2.4186" stroke-miterlimit="10"/>
<path d="M1167.42 38.3772H1138.44V41.8289H1167.42V38.3772Z" fill="black" stroke="white" stroke-width="2.4186" stroke-miterlimit="10"/>
</g>
<defs>
<clipPath id="clip0_157_8">
<rect width="403.326" height="120.998" fill="white" transform="translate(0 1)"/>
</clipPath>
<clipPath id="clip1_157_8">
<rect width="505.588" height="65.5392" fill="white" transform="translate(673.408 27.2236)"/>
</clipPath>
</defs>
</svg>
